<?xml version="1.0" encoding="utf-8"?>
<!-- Generator: Adobe Illustrator 18.0.0, SVG Export Plug-In . SVG Version: 6.00 Build 0)  -->
<!DOCTYPE svg PUBLIC "-//W3C//DTD SVG 1.1//EN" "http://www.w3.org/Graphics/SVG/1.1/DTD/svg11.dtd">
<svg version="1.1" id="Capa_1" xmlns="http://www.w3.org/2000/svg" xmlns:xlink="http://www.w3.org/1999/xlink" x="0px" y="0px"
	 viewBox="0 0 100 100" enable-background="new 0 0 100 100" xml:space="preserve">
<path fill="#FFFFFF" d="M50,20.6c-23.3,0-23.2,4.6-23.2,4.6V38c4.3-0.4,7.3-1,9.2-1.6c2.9-0.9,4-1.8,4.2-1.9c0.4-0.5,1-0.8,1.7-0.8
	c0.3,0,0.5,0,0.8,0.1c0.9,0.3,1.5,1.3,1.5,2.2v18.5c1.8-0.9,3.8-1.4,5.8-1.4c0.6,0,1.2,0.1,2,0.2c0.7,0.1,1.4,0.3,2.1,0.5
	c1.4,0.5,2.7,1.2,3.9,2.1c2.1,1.7,4,4.3,4.4,7.4c0.1,0.5-0.3,0.8-0.8,0.7c-2.4-0.6-4.2-0.7-6-0.9l-2.9-0.1l-2.9,0
	c-1.7,0-3.6,0-5.6,0.2c0,0-0.1,0-0.1,0c0,5.1-1.2,9.9-3.2,14.1c2.7,1.3,5.8,2.1,8.9,2.1c12.8,0,23.2-12.1,23.2-27.1V25.2
	C73.2,25.2,73.3,20.6,50,20.6L50,20.6z M65.3,45.8c-2.8,2.1-6.8,1.9-9.3-0.6c-2.6-2.6-2.8-6.6-0.6-9.3c0.3-0.4,0.9-0.4,1.3,0
	l8.7,8.7C65.7,44.9,65.7,45.4,65.3,45.8L65.3,45.8z M65.3,45.8"/>
<path fill="#FFFFFF" d="M73.2,22.9c0,0-4.2,4.6-23.2,4.6c-18.9,0-23.2-4.6-23.2-4.6V50c0,15,10.4,27.1,23.2,27.1
	C62.8,77.1,73.2,65,73.2,50L73.2,22.9L73.2,22.9z M34.2,47.3c-0.5,0-0.9-0.4-0.9-0.9c0.5-3.5,3.4-6.2,7-6.2c3.6,0,6.6,2.7,7,6.2
	c0.1,0.5-0.4,0.9-0.9,0.9H34.2z M62.4,56.5c-0.4,3.1-2.2,5.7-4.4,7.4c-2.4,1.9-5.2,2.8-8.2,2.8c-0.6,0-1.2-0.1-2-0.2
	c-0.7-0.1-1.4-0.3-2.1-0.5c-1.4-0.5-2.7-1.2-3.9-2.1c-2.1-1.7-4-4.3-4.4-7.4c-0.1-0.5,0.3-0.8,0.8-0.7c2.4,0.6,4.2,0.8,6,0.9
	l2.9,0.1l2.9,0c1.7,0,3.6,0,5.6-0.2c1.8-0.1,3.6-0.3,6-0.9C62.1,55.7,62.5,55.9,62.4,56.5L62.4,56.5z M65.8,47.3H53.5
	c-0.5,0-0.9-0.4-0.9-0.9c0.5-3.5,3.4-6.2,7-6.2c3.6,0,6.6,2.7,7,6.2C66.8,46.9,66.3,47.3,65.8,47.3L65.8,47.3z M65.8,47.3"/>
</svg>
